<svg width="101" height="100" viewBox="0 0 101 100" fill="none" xmlns="http://www.w3.org/2000/svg">
<path d="M26.3862 42.8652C26.2383 42.1995 26.6821 41.5337 27.3231 41.3858C27.9889 41.2625 28.6546 41.6817 28.8025 42.3474C28.9504 43.0131 28.5066 43.6542 27.8409 43.8021C27.7669 43.8268 27.693 43.8268 27.5943 43.8268C27.0273 43.8268 26.5095 43.4323 26.3862 42.8652ZM73.1592 43.7528C72.4935 43.6295 72.0744 42.9638 72.2223 42.2981C72.3456 41.6324 73.0113 41.2132 73.677 41.3365C74.3427 41.4844 74.7619 42.1502 74.614 42.8159C74.4907 43.383 73.9976 43.7775 73.4058 43.7775C73.3318 43.7775 73.2579 43.7775 73.1592 43.7528ZM25.8438 37.7367C25.8438 37.0463 26.3862 36.5039 27.0766 36.5039C27.7669 36.5039 28.3094 37.0463 28.3094 37.7367C28.3094 38.4024 27.7669 38.9695 27.0766 38.9695C26.4108 38.9695 25.8438 38.4271 25.8438 37.7367ZM72.6908 37.6874C72.6908 37.6627 72.6908 37.638 72.6908 37.5887C72.6908 36.923 73.2332 36.3559 73.9236 36.3559C74.5893 36.3559 75.1564 36.8984 75.1564 37.5887V37.638V37.6874C75.1564 38.3777 74.614 38.9202 73.9236 38.9202C73.2332 38.9202 72.6908 38.3777 72.6908 37.6874ZM27.3231 34.0629C26.6574 33.9396 26.2383 33.2739 26.3615 32.6082C26.5095 31.9424 27.1505 31.5233 27.8163 31.6712C28.482 31.7945 28.9258 32.4602 28.7779 33.1259C28.6546 33.693 28.1368 34.0875 27.5697 34.0875C27.4957 34.0875 27.3971 34.0875 27.3231 34.0629ZM72.1976 32.978C72.0497 32.3123 72.4689 31.6712 73.1346 31.5233C73.8003 31.3753 74.466 31.7945 74.614 32.4602C74.7372 33.1259 74.3181 33.7917 73.6524 33.9396C73.5784 33.9396 73.4798 33.9643 73.4058 33.9643C72.814 33.9643 72.3209 33.5698 72.1976 32.978ZM28.5806 29.3289C27.9642 29.0576 27.6683 28.318 27.9395 27.7015C28.2354 27.0851 28.9504 26.8139 29.5669 27.0851C30.1833 27.3564 30.4791 28.0714 30.2079 28.7125C29.986 29.1563 29.5422 29.4521 29.0737 29.4521C28.9011 29.4521 28.7285 29.4028 28.5806 29.3289ZM70.7429 28.5892C70.4717 27.9728 70.7429 27.2331 71.3593 26.9619C71.9757 26.666 72.7154 26.9372 72.9866 27.5783C73.2825 28.1947 72.9866 28.9097 72.3702 29.2056C72.1976 29.2796 72.025 29.3042 71.8771 29.3042C71.4086 29.3042 70.9402 29.033 70.7429 28.5892ZM30.7997 24.9647C30.2326 24.5702 30.1093 23.7812 30.5285 23.2388C30.923 22.6963 31.6873 22.573 32.2297 22.9675C32.7968 23.362 32.9201 24.1264 32.501 24.6935C32.2791 25.014 31.8846 25.1866 31.5147 25.1866C31.2681 25.1866 31.0216 25.1126 30.7997 24.9647ZM68.4006 24.5702C68.0061 24.0278 68.1293 23.2634 68.6718 22.8443C69.2142 22.4497 70.0032 22.573 70.3977 23.1155C70.7922 23.6579 70.6689 24.4469 70.1265 24.8414C69.9046 25.014 69.658 25.088 69.4115 25.088C69.017 25.088 68.6471 24.9154 68.4006 24.5702ZM33.8571 21.143C33.4132 20.6498 33.4379 19.8608 33.9557 19.417C34.4488 18.9486 35.2378 18.9979 35.7063 19.491C36.1501 19.9841 36.1254 20.7731 35.6077 21.2416C35.3611 21.4388 35.0652 21.5621 34.7693 21.5621C34.4488 21.5621 34.1036 21.4142 33.8571 21.143ZM65.2939 21.143C64.7761 20.6992 64.7268 19.9101 65.1952 19.3924C65.6391 18.8992 66.4281 18.8499 66.9458 19.3184C67.439 19.7622 67.4883 20.5266 67.0198 21.0443C66.7979 21.3156 66.4527 21.4635 66.1075 21.4635C65.8117 21.4635 65.5158 21.3649 65.2939 21.143ZM37.6541 18.0609C37.3336 17.4692 37.5308 16.7048 38.1226 16.3596C38.6897 16.0144 39.454 16.2117 39.7992 16.8035C40.1444 17.3952 39.9472 18.1595 39.3554 18.5047C39.1582 18.6034 38.9363 18.6527 38.739 18.6527C38.2952 18.6527 37.9007 18.4554 37.6541 18.0609ZM61.5215 18.4308C60.9297 18.0856 60.7325 17.3459 61.0776 16.7541C61.4228 16.1624 62.1625 15.9405 62.7543 16.2857C63.346 16.6309 63.5433 17.3705 63.2227 17.9623C62.9762 18.3815 62.557 18.5787 62.1379 18.5787C61.9406 18.5787 61.7187 18.5294 61.5215 18.4308ZM42.0183 15.8172C41.821 15.1515 42.1662 14.4611 42.8073 14.2638C43.4484 14.0419 44.1634 14.3871 44.3607 15.0282C44.5826 15.6939 44.2374 16.3843 43.5716 16.6062C43.4484 16.6309 43.3251 16.6555 43.2018 16.6555C42.684 16.6555 42.1909 16.335 42.0183 15.8172ZM57.2806 16.5569C56.6395 16.335 56.2943 15.6446 56.4916 15.0035C56.6888 14.3625 57.4038 13.9926 58.0449 14.2145C58.686 14.4118 59.0558 15.1022 58.8339 15.7679C58.6613 16.2857 58.1928 16.6062 57.6751 16.6062C57.5518 16.6062 57.4038 16.5815 57.2806 16.5569ZM46.7523 14.5351C46.6783 13.8447 47.1715 13.2529 47.8372 13.179C48.5276 13.105 49.144 13.5981 49.1933 14.2638C49.2919 14.9542 48.7988 15.546 48.1084 15.6199C48.0591 15.6199 48.0344 15.6199 47.9851 15.6199C47.3441 15.6199 46.8263 15.1515 46.7523 14.5351ZM52.7438 15.5953C52.0781 15.546 51.585 14.9296 51.6589 14.2638C51.7082 13.5735 52.3246 13.0803 52.9904 13.1543C53.6807 13.2283 54.1739 13.82 54.0999 14.5104C54.0506 15.1515 53.5081 15.6199 52.8671 15.6199C52.8424 15.6199 52.7931 15.6199 52.7438 15.5953Z" fill="#14263B"/>
<path d="M46.8031 69.7407C46.1226 69.7407 45.5703 69.1884 45.5703 68.5079V67.3663C45.5703 62.1712 41.9828 57.6419 36.8444 56.3499C36.1836 56.1847 35.7842 55.514 35.9494 54.8532C36.1146 54.1924 36.7828 53.7881 37.446 53.9582C43.6816 55.5263 48.0359 61.0395 48.0359 67.3663V68.5079C48.0359 69.1884 47.4836 69.7407 46.8031 69.7407Z" fill="#14263B"/>
<path d="M32.655 60.9062C32.3394 60.9062 32.0238 60.7854 31.7822 60.5462L20.9655 49.7468C20.7337 49.515 20.6055 49.2019 20.6055 48.8739C20.6055 48.5485 20.7361 48.2329 20.9655 48.0011C24.3582 44.6084 28.5374 44.8969 32.4282 48.7901L37.9857 54.3378C38.469 54.8186 38.469 55.6002 37.9882 56.081C37.5074 56.5642 36.7258 56.5618 36.245 56.0834L30.685 50.5358C28.1552 48.0036 25.7932 47.471 23.653 48.9479L33.5205 58.8006C34.0012 59.2814 34.0012 60.063 33.5205 60.5462C33.2862 60.7854 32.9706 60.9062 32.655 60.9062Z" fill="#14263B"/>
<path d="M25.8438 73.6436V79.6031H28.3094V74.6718H45.5688V79.6031H48.0344V73.6436C48.0344 72.9631 47.4304 72.2062 46.7498 72.2062H27.0248C26.3393 72.2062 25.8438 72.9656 25.8438 73.6436Z" fill="#14263B"/>
<path d="M23.3789 85.7672C23.3789 86.4452 23.9312 87 24.6117 87C25.2922 87 25.8445 86.4452 25.8445 85.7672V79.6031H45.5696V85.7647C45.5696 86.4452 46.1219 86.9975 46.8024 86.9975C47.4829 87 48.0352 86.4452 48.0352 85.7647V78.5749C48.0352 77.8944 47.4312 77.1375 46.7506 77.1375H24.5599C23.877 77.1375 23.3789 77.8944 23.3789 78.5749V85.7672Z" fill="#14263B"/>
<path d="M54.1977 69.7407C53.5171 69.7407 52.9648 69.1884 52.9648 68.5079V67.3663C52.9648 61.0395 57.3192 55.5263 63.5547 53.9582C64.2155 53.793 64.8862 54.1924 65.0514 54.8532C65.2166 55.514 64.8171 56.1846 64.1563 56.3498C59.018 57.6418 55.4305 62.1712 55.4305 67.3663V68.5079C55.4305 69.1884 54.8782 69.7407 54.1977 69.7407Z" fill="#14263B"/>
<path d="M68.3468 60.9063C68.0312 60.9063 67.7156 60.7855 67.474 60.5463C66.9932 60.0631 66.9932 59.2839 67.474 58.8007L77.3415 48.948C75.1988 47.4711 72.8417 48.0037 70.3119 50.5359L64.7519 56.0836C64.2711 56.5619 63.4895 56.5644 63.0087 56.0811C62.5279 55.6003 62.5279 54.8187 63.0112 54.3379L68.5712 48.7902C72.4669 44.897 76.6437 44.611 80.0339 48.0012C80.2657 48.233 80.3939 48.5461 80.3939 48.874C80.3939 49.202 80.2632 49.5151 80.0339 49.7469L69.2172 60.5463C68.978 60.7855 68.6624 60.9063 68.3468 60.9063Z" fill="#14263B"/>
<path d="M33.2407 70.8797C33.2407 70.5 33.0656 70.1425 32.7697 69.9083L23.9921 63.0291C23.2302 62.4226 22.1133 61.1134 21.7533 60.2528L15.9813 46.8349L15.9467 35.3919C16.0774 35.1601 16.8935 34.6497 17.8231 34.7853C19.2433 34.9752 19.9115 36.4965 20.2221 37.7342C20.6783 39.5637 20.7843 41.1762 20.8854 42.7C20.9298 43.3781 21.5067 43.8465 22.1922 43.7972C22.8727 43.7528 23.3831 43.1142 23.3387 42.4362C23.2376 40.91 23.1242 39.184 22.6163 37.14C21.63 33.2049 19.0436 32.0731 16.933 32.337C15.2539 32.5441 13.5156 33.6733 13.5156 35.207V47.0888C13.5156 47.2565 13.5501 47.4217 13.6167 47.577L19.4849 61.2194C20.0274 62.5114 21.4229 64.1362 22.4634 64.9647L30.7751 71.4789V74.6719H33.2407V70.8797Z" fill="#14263B"/>
<path d="M67.7598 70.8797C67.7598 70.5 67.9348 70.1425 68.2307 69.9082L77.0084 63.0291C77.7702 62.4226 78.8872 61.1133 79.2471 60.2528L85.0192 46.8349L85.0537 35.3919C84.923 35.1601 84.1044 34.6497 83.1749 34.7853C81.7547 34.9752 81.0865 36.494 80.7758 37.7342C80.3197 39.5637 80.2137 41.1762 80.1126 42.7C80.0682 43.378 79.4912 43.8465 78.8058 43.7972C78.1253 43.7528 77.6149 43.1142 77.6593 42.4362C77.7604 40.9099 77.8738 39.184 78.3817 37.14C79.3655 33.2048 81.9519 32.0731 84.0625 32.3394C85.7466 32.544 87.4848 33.6733 87.4848 35.2069V47.0888C87.4848 47.2565 87.4503 47.4217 87.3837 47.577L81.5155 61.2194C80.9731 62.5113 79.5775 64.1362 78.537 64.9646L70.2254 71.4789V74.6718H67.7598V70.8797Z" fill="#14263B"/>
<path d="M75.1555 73.6438V79.6032H72.6899V74.6719H55.4305V79.6032H52.9648V73.6438C52.9648 72.9632 53.5689 72.2063 54.2494 72.2063H73.9745C74.6599 72.2063 75.1555 72.9657 75.1555 73.6438Z" fill="#14263B"/>
<path d="M77.6212 85.7672C77.6212 86.4452 77.0689 87 76.3884 87C75.7078 87 75.1555 86.4452 75.1555 85.7672V79.6031H55.4305V85.7647C55.4305 86.4452 54.8782 86.9975 54.1977 86.9975C53.5171 87 52.9648 86.4452 52.9648 85.7647V78.5749C52.9648 77.8944 53.5689 77.1375 54.2494 77.1375H76.4401C77.1231 77.1375 77.6212 77.8944 77.6212 78.5749V85.7672Z" fill="#14263B"/>
<path d="M46.8022 54.9468C46.6493 54.9468 46.494 54.9196 46.346 54.8629C45.7913 54.641 45.4732 54.0591 45.5915 53.4748L47.7638 42.6186H41.8709C41.4222 42.6186 41.0104 42.3745 40.791 41.9849C40.574 41.5929 40.5863 41.1121 40.8255 40.7324L53.1536 21.0073C53.4692 20.5019 54.1054 20.2997 54.6527 20.5167C55.2075 20.7361 55.5231 21.318 55.4072 21.9048L52.9416 34.233C52.8085 34.9012 52.1674 35.34 51.4918 35.1995C50.8236 35.0664 50.3921 34.4204 50.5228 33.7497L51.6644 28.0418L44.0949 40.153H49.2678C49.6352 40.153 49.9853 40.3182 50.222 40.6066C50.4562 40.8902 50.5499 41.2699 50.4784 41.6299L49.3368 47.3353L58.0874 33.3355C58.4474 32.7585 59.2092 32.581 59.7837 32.9459C60.3607 33.3059 60.5382 34.0653 60.1758 34.6423L47.8476 54.3673C47.6183 54.7396 47.2164 54.9468 46.8022 54.9468Z" fill="#9ACD33"/>
</svg>
