<svg width="101" height="100" viewBox="0 0 101 100" fill="none" xmlns="http://www.w3.org/2000/svg">
<path d="M31.2429 15.7911L34.8797 21.4908L26.2097 24.8523C26.1155 24.8885 26.0195 24.9429 25.938 25.0044L21.8448 28.1613C21.421 28.4873 21.2979 29.0687 21.5532 29.5396L23.0293 32.2653L24.1631 34.8734C24.3352 35.27 24.7264 35.5272 25.1592 35.5272H30.283L36.0877 42.8334L28.8268 51.4128C28.6312 51.6446 28.5406 51.9489 28.5787 52.2495L28.9029 54.8449L26.8925 53.1316L27.0501 45.2531C27.0555 45.0013 26.9704 44.7532 26.8146 44.5558L23.3499 40.1873L24.2826 37.9234C24.4855 37.4289 24.2989 36.8584 23.8425 36.5813L15.8862 31.7492L14.7578 33.6074L21.9191 37.9578L21.0986 39.9518C20.9483 40.3177 21.0063 40.7306 21.2526 41.0403L24.8713 45.6026L24.7119 53.6061C24.7046 53.9321 24.8459 54.2436 25.094 54.4555L29.6273 58.3169C29.9696 58.6085 30.4532 58.6592 30.848 58.4455C31.2429 58.2318 31.4656 57.8007 31.4095 57.3552L30.7973 52.456L38.3263 43.5596C38.6613 43.1648 38.6704 42.5871 38.348 42.1814L31.6631 33.7668C31.4584 33.5078 31.1414 33.3556 30.8118 33.3556H25.8764L25.0071 31.3579L24.9654 31.2728L23.9077 29.3186L27.1442 26.8228L36.9027 23.0393C37.207 22.9216 37.4406 22.6735 37.542 22.3638C37.6435 22.0541 37.6 21.7154 37.4261 21.4419L33.0758 14.6248L31.2429 15.7929V15.7911Z" fill="#9ACD33"/>
<path d="M38.0312 15.0051L41.3891 19.3699C41.688 19.7575 42.2114 19.8988 42.6624 19.7123L49.2097 17.0263L48.3856 15.0159L42.6062 17.3867L39.7555 13.6793L38.0331 15.0051H38.0312Z" fill="#9ACD33"/>
<path d="M42.2211 63.1418C41.3608 63.2341 40.4879 63.283 39.6022 63.283C32.9571 63.283 26.9495 60.5917 22.5937 56.2377C18.2397 51.8819 15.5484 45.8743 15.5484 39.2292C15.5484 32.5841 18.2397 26.5765 22.5937 22.2207C26.9495 17.8667 32.9571 15.1753 39.6022 15.1753C45.2367 15.1753 50.4093 17.1096 54.5098 20.3516C58.6102 23.5935 61.6276 28.1413 62.937 33.3647L65.0452 32.8358C63.6162 27.1361 60.3254 22.179 55.8591 18.6455C51.3928 15.1119 45.7384 13.0001 39.6022 13.002C32.3631 13.002 25.7995 15.9396 21.0561 20.683C16.3109 25.4264 13.3732 31.99 13.375 39.2292C13.375 46.4683 16.3127 53.0319 21.0561 57.7753C25.7995 62.5205 32.3631 65.4582 39.6022 65.4582C40.5658 65.4582 41.5184 65.4057 42.4548 65.3043L42.2211 63.1436V63.1418Z" fill="#14263B"/>
<path d="M41.3884 85.9133V71.3172C41.3884 67.9793 42.7522 64.9492 44.9563 62.7433C47.1623 60.5391 50.1924 59.1771 53.5303 59.1753H62.8812C65.214 59.1753 67.4942 59.8617 69.4104 61.0861C71.3284 62.3122 72.8806 64.069 73.7844 66.2116C74.0071 66.7387 74.2136 67.3001 74.3911 67.8688C74.5686 68.443 75.1771 68.7635 75.7513 68.586C76.3254 68.4085 76.646 67.8 76.4685 67.2259C76.2692 66.5829 76.0374 65.9562 75.7875 65.364C74.7008 62.7922 72.8444 60.7003 70.5804 59.2532C68.3165 57.8061 65.6396 57.0001 62.8812 57.0001H53.5303C49.5929 57.0001 46.0086 58.612 43.4205 61.2038C40.8287 63.7937 39.2168 67.3762 39.2168 71.3136V85.9097C39.2168 86.5091 39.704 86.9963 40.3035 86.9963C40.903 86.9963 41.3902 86.5091 41.3902 85.9097L41.3884 85.9133ZM58.2049 31.577V32.6637C60.8999 32.6637 63.3286 33.7522 65.0945 35.5181C66.8585 37.284 67.947 39.7145 67.9488 42.4077C67.9488 45.1027 66.8603 47.5314 65.0945 49.2973C63.3286 51.0632 60.898 52.1499 58.2049 52.1517C55.5099 52.1517 53.0811 51.0632 51.3153 49.2973C49.5494 47.5314 48.4627 45.1009 48.4609 42.4077C48.4609 39.7127 49.5494 37.284 51.3153 35.5181C53.0811 33.7522 55.5117 32.6655 58.2049 32.6637V30.4904C54.9176 30.4904 51.9311 31.8252 49.7776 33.9804C47.6223 36.1339 46.2857 39.1205 46.2875 42.4077C46.2875 45.6949 47.6223 48.6815 49.7776 50.835C51.9311 52.9902 54.9176 54.3269 58.2049 54.3251C61.4921 54.3251 64.4787 52.9902 66.6321 50.835C68.7874 48.6815 70.1222 45.6949 70.1222 42.4077C70.1222 39.1205 68.7874 36.1339 66.6321 33.9804C64.4787 31.8252 61.4921 30.4885 58.2049 30.4904V31.577Z" fill="#14263B"/>
<path d="M64.9603 67.9956V69.0823H85.2071L81.9706 84.8266H62.6094L66.0252 68.2148L64.9603 67.9956L63.8953 67.7765L60.2114 85.6942C60.1462 86.0129 60.2277 86.3462 60.4342 86.5997C60.6407 86.8533 60.9504 87 61.2764 87H82.8562C83.3706 87 83.8161 86.636 83.9212 86.1325L87.605 68.2148C87.6702 67.896 87.5887 67.5628 87.3823 67.3092C87.1758 67.0556 86.8661 66.9089 86.5401 66.9089H64.9603C64.4459 66.9089 64.0004 67.273 63.8953 67.7765L64.9603 67.9956Z" fill="#14263B"/>
<path d="M61.409 84.8267H51.1941C50.5946 84.8267 50.1074 85.3139 50.1074 85.9133C50.1074 86.5128 50.5946 87 51.1941 87H61.409C62.0085 87 62.4957 86.5128 62.4957 85.9133C62.4957 85.3139 62.0085 84.8267 61.409 84.8267Z" fill="#14263B"/>
<path d="M75.7175 76.5189H73.8738C73.2743 76.5189 72.7871 77.0061 72.7871 77.6056C72.7871 78.2051 73.2743 78.6923 73.8738 78.6923H75.7175C76.317 78.6923 76.8042 78.2051 76.8042 77.6056C76.8042 77.0061 76.317 76.5189 75.7175 76.5189Z" fill="#9ACD33"/>
</svg>
