<svg width="101" height="100" viewBox="0 0 101 100" fill="none" xmlns="http://www.w3.org/2000/svg">
<path d="M16.5742 33.3141H28.9333C29.5805 33.3141 30.1052 32.7896 30.1052 32.1422C30.1052 31.4949 29.5805 30.9703 28.9333 30.9703H16.5742C15.927 30.9703 15.4023 31.4949 15.4023 32.1422C15.4023 32.7896 15.9269 33.3141 16.5742 33.3141Z" fill="#14263B"/>
<path d="M28.5091 38.9558H23.627C22.9798 38.9558 22.4551 39.4803 22.4551 40.1277C22.4551 40.775 22.9798 41.2996 23.627 41.2996H28.5091C29.1563 41.2996 29.681 40.775 29.681 40.1277C29.681 39.4803 29.1563 38.9558 28.5091 38.9558Z" fill="#9ACD33"/>
<path d="M11.6719 47.0823H23.6269C24.2741 47.0823 24.7987 46.5577 24.7987 45.9104C24.7987 45.2631 24.2741 44.7385 23.6269 44.7385H11.6719C11.0247 44.7385 10.5 45.2631 10.5 45.9104C10.5 46.5577 11.0247 47.0823 11.6719 47.0823Z" fill="#14263B"/>
<path d="M30.1052 67.8577C30.1052 67.2103 29.5805 66.6858 28.9333 66.6858H16.5742C15.927 66.6858 15.4023 67.2103 15.4023 67.8577C15.4023 68.505 15.927 69.0295 16.5742 69.0295H28.9333C29.5805 69.0295 30.1052 68.505 30.1052 67.8577Z" fill="#14263B"/>
<path d="M28.5091 58.7004H23.627C22.9798 58.7004 22.4551 59.225 22.4551 59.8723C22.4551 60.5197 22.9798 61.0442 23.627 61.0442H28.5091C29.1563 61.0442 29.681 60.5197 29.681 59.8723C29.681 59.225 29.1563 58.7004 28.5091 58.7004Z" fill="#9ACD33"/>
<path d="M24.7987 54.0895C24.7987 53.4421 24.2741 52.9176 23.6269 52.9176H11.6719C11.0247 52.9176 10.5 53.4421 10.5 54.0895C10.5 54.7368 11.0247 55.2614 11.6719 55.2614H23.6269C24.2741 55.2614 24.7987 54.7368 24.7987 54.0895Z" fill="#14263B"/>
<path d="M60.4258 35.9109C61.0731 35.9109 61.5977 35.3864 61.5977 34.7391V32.9503C61.5977 32.303 61.0731 31.7784 60.4258 31.7784C59.7784 31.7784 59.2539 32.303 59.2539 32.9503V34.7391C59.2539 35.3864 59.7784 35.9109 60.4258 35.9109Z" fill="#14263B"/>
<path d="M73.3104 37.1153C72.8525 36.6578 72.1107 36.6578 71.653 37.1153L70.3882 38.3802C69.9305 38.838 69.9305 39.5799 70.3882 40.0375C70.8461 40.4952 71.5879 40.495 72.0455 40.0375L73.3104 38.7727C73.7679 38.315 73.7679 37.5732 73.3104 37.1153Z" fill="#14263B"/>
<path d="M75.6875 48.8281C75.0402 48.8281 74.5156 49.3527 74.5156 50C74.5156 50.6473 75.0402 51.1719 75.6875 51.1719H77.4761C78.1234 51.1719 78.648 50.6473 78.648 50C78.648 49.3527 78.1234 48.8281 77.4761 48.8281H75.6875Z" fill="#14263B"/>
<path d="M72.0455 59.9623C71.5877 59.5048 70.8458 59.5048 70.3882 59.9623C69.9305 60.4201 69.9305 61.162 70.3882 61.6196L71.653 62.8845C72.111 63.3421 72.8527 63.342 73.3104 62.8845C73.768 62.4266 73.768 61.6848 73.3104 61.2271L72.0455 59.9623Z" fill="#14263B"/>
<path d="M59.2539 65.261V67.0496C59.2539 67.6969 59.7784 68.2215 60.4258 68.2215C61.0731 68.2215 61.5977 67.6969 61.5977 67.0496V65.261C61.5977 64.6136 61.0731 64.0891 60.4258 64.0891C59.7784 64.0891 59.2539 64.6138 59.2539 65.261Z" fill="#14263B"/>
<path d="M48.8073 59.9623L47.5425 61.2271C47.0848 61.6849 47.0848 62.4268 47.5425 62.8845C48.0003 63.3421 48.7421 63.342 49.1996 62.8845L50.4645 61.6196C50.9221 61.1618 50.9221 60.4199 50.4645 59.9623C50.007 59.5048 49.265 59.5048 48.8073 59.9623Z" fill="#14263B"/>
<path d="M43.377 48.8281C42.7298 48.8281 42.2051 49.3527 42.2051 50C42.2051 50.6473 42.7298 51.1719 43.377 51.1719H45.1657C45.8129 51.1719 46.3376 50.6473 46.3376 50C46.3376 49.3527 45.8129 48.8281 45.1657 48.8281H43.377Z" fill="#14263B"/>
<path d="M50.4645 38.3802L49.1996 37.1153C48.742 36.6578 48 36.6578 47.5425 37.1153C47.0848 37.5732 47.0848 38.315 47.5425 38.7727L48.8073 40.0375C49.2651 40.4952 50.007 40.495 50.4645 40.0375C50.9221 39.5799 50.9221 38.838 50.4645 38.3802Z" fill="#14263B"/>
<path d="M66.7273 49.9999C66.7273 49.3526 66.2028 48.8281 65.5555 48.8281H61.5977V40.1274C61.5977 39.4801 61.0731 38.9556 60.4258 38.9556C59.7784 38.9556 59.2539 39.4801 59.2539 40.1274V49.9999C59.2539 50.6473 59.7784 51.1718 60.4258 51.1718H65.5555C66.2027 51.1718 66.7273 50.6473 66.7273 49.9999Z" fill="#9ACD33"/>
<path d="M82.6477 49.8064C83.2938 49.7672 83.7856 49.2117 83.7464 48.5658C83.0009 36.2685 72.7578 26.6355 60.4269 26.6355C47.5438 26.6355 37.0625 37.1167 37.0625 50C37.0625 62.8832 47.5438 73.3644 60.4269 73.3644C71.9689 73.3644 81.8175 64.9078 83.5308 53.4961C83.6269 52.8561 83.1859 52.2594 82.5458 52.1633C81.9073 52.0675 81.3091 52.508 81.213 53.1483C79.6739 63.4005 70.8214 71.0208 60.4269 71.0208C48.8361 71.0208 39.4063 61.591 39.4063 50.0002C39.4063 38.4094 48.8361 28.9794 60.4269 28.9794C71.5208 28.9794 80.7363 37.6452 81.4069 48.708C81.4459 49.3536 82.0009 49.8439 82.6477 49.8064Z" fill="#14263B"/>
<path d="M60.4253 19.9264C56.3033 19.9264 52.2647 20.7815 48.5475 22.3808H27.8711C27.2239 22.3808 26.6992 22.9053 26.6992 23.5526C26.6992 24.2 27.2239 24.7245 27.8711 24.7245H44.1388C41.9392 26.1401 39.9144 27.8476 38.1291 29.8189C37.6947 30.2984 37.7313 31.0395 38.2109 31.474C38.6908 31.9086 39.4316 31.8719 39.8662 31.3922C45.1166 25.595 52.6102 22.2701 60.4253 22.2701C75.7156 22.2701 88.1553 34.7097 88.1553 50C88.1553 65.2901 75.7158 77.7298 60.4253 77.7298C45.135 77.7298 32.6955 65.2903 32.6955 50C32.6955 44.6456 34.225 39.4487 37.1184 34.9709C37.4697 34.4273 37.3137 33.702 36.7702 33.3508C36.2266 32.9997 35.5013 33.1553 35.1498 33.699C32.0108 38.5565 30.3517 44.1933 30.3517 50C30.3517 60.5884 35.8527 69.9153 44.1462 75.2755H27.8712C27.2241 75.2755 26.6994 75.8 26.6994 76.4473C26.6994 77.0947 27.2241 77.6192 27.8712 77.6192H48.5314C52.1814 79.1972 56.2028 80.0736 60.4255 80.0736C77.008 80.0736 90.4991 66.5826 90.4991 50C90.4991 33.4173 77.008 19.9264 60.4253 19.9264Z" fill="#14263B"/>
</svg>
