<svg width="101" height="100" viewBox="0 0 101 100" fill="none" xmlns="http://www.w3.org/2000/svg">
<path d="M84.1889 77.8877C83.8414 77.8877 83.5081 78.0257 83.2624 78.2714C83.0167 78.5171 82.8787 78.8504 82.8787 79.1979V82.3797H79.6969C79.3494 82.3797 79.0162 82.5177 78.7705 82.7634C78.5248 83.0091 78.3867 83.3424 78.3867 83.6898C78.3867 84.0373 78.5248 84.3706 78.7705 84.6163C79.0162 84.862 79.3494 85 79.6969 85H84.1889C84.5363 85 84.8696 84.862 85.1153 84.6163C85.361 84.3706 85.499 84.0373 85.499 83.6898V79.1979C85.499 78.8504 85.361 78.5171 85.1153 78.2714C84.8696 78.0257 84.5363 77.8877 84.1889 77.8877Z" fill="#14263B"/>
<path d="M71.3556 82.3796H63.0133C62.6658 82.3796 62.3326 82.5177 62.0869 82.7634C61.8412 83.0091 61.7031 83.3423 61.7031 83.6898C61.7031 84.0373 61.8412 84.3705 62.0869 84.6162C62.3326 84.8619 62.6658 85 63.0133 85H71.3556C71.7031 85 72.0364 84.8619 72.2821 84.6162C72.5278 84.3705 72.6658 84.0373 72.6658 83.6898C72.6658 83.3423 72.5278 83.0091 72.2821 82.7634C72.0364 82.5177 71.7031 82.3796 71.3556 82.3796Z" fill="#14263B"/>
<path d="M54.6708 82.3797H49.1307V52.6809C49.1307 52.3335 48.9927 52.0002 48.747 51.7545C48.5013 51.5088 48.168 51.3708 47.8205 51.3708H18.1203V45.8307C18.1203 45.4832 17.9823 45.1499 17.7366 44.9042C17.4909 44.6585 17.1576 44.5205 16.8102 44.5205C16.4627 44.5205 16.1294 44.6585 15.8837 44.9042C15.638 45.1499 15.5 45.4832 15.5 45.8307V83.6898C15.5 84.0373 15.638 84.3705 15.8837 84.6162C16.1294 84.8619 16.4627 85 16.8102 85H54.6708C55.0183 85 55.3515 84.8619 55.5972 84.6162C55.8429 84.3705 55.981 84.0373 55.981 83.6898C55.981 83.3423 55.8429 83.0091 55.5972 82.7634C55.3515 82.5177 55.0183 82.3797 54.6708 82.3797ZM46.3285 82.3797H18.1203V53.9911H46.5089V82.3797H46.3285Z" fill="#14263B"/>
<path d="M16.8102 38.797C17.1576 38.797 17.4909 38.659 17.7366 38.4133C17.9823 38.1676 18.1203 37.8343 18.1203 37.4868V29.1452C18.1203 28.7978 17.9823 28.4645 17.7366 28.2188C17.4909 27.9731 17.1576 27.8351 16.8102 27.8351C16.4627 27.8351 16.1294 27.9731 15.8837 28.2188C15.638 28.4645 15.5 28.7978 15.5 29.1452V37.4868C15.5 37.8343 15.638 38.1676 15.8837 38.4133C16.1294 38.659 16.4627 38.797 16.8102 38.797Z" fill="#14263B"/>
<path d="M16.8102 22.1123C17.1576 22.1123 17.4909 21.9743 17.7366 21.7286C17.9823 21.4829 18.1203 21.1496 18.1203 20.8021V17.6203H21.3021C21.6496 17.6203 21.9829 17.4823 22.2286 17.2366C22.4743 16.9909 22.6123 16.6576 22.6123 16.3102C22.6123 15.9627 22.4743 15.6294 22.2286 15.3837C21.9829 15.138 21.6496 15 21.3021 15H16.8102C16.4627 15 16.1294 15.138 15.8837 15.3837C15.638 15.6294 15.5 15.9627 15.5 16.3102V20.8021C15.5 21.1496 15.638 21.4829 15.8837 21.7286C16.1294 21.9743 16.4627 22.1123 16.8102 22.1123Z" fill="#14263B"/>
<path d="M63.0133 17.6203H71.3556C71.7031 17.6203 72.0364 17.4823 72.2821 17.2366C72.5278 16.9909 72.6658 16.6576 72.6658 16.3102C72.6658 15.9627 72.5278 15.6294 72.2821 15.3837C72.0364 15.138 71.7031 15 71.3556 15H63.0133C62.6658 15 62.3326 15.138 62.0869 15.3837C61.8412 15.6294 61.7031 15.9627 61.7031 16.3102C61.7031 16.6576 61.8412 16.9909 62.0869 17.2366C62.3326 17.4823 62.6658 17.6203 63.0133 17.6203Z" fill="#14263B"/>
<path d="M46.3297 17.6203H54.672C55.0195 17.6203 55.3528 17.4823 55.5985 17.2366C55.8442 16.9909 55.9822 16.6576 55.9822 16.3102C55.9822 15.9627 55.8442 15.6294 55.5985 15.3837C55.3528 15.138 55.0195 15 54.672 15H46.3297C45.9822 15 45.649 15.138 45.4033 15.3837C45.1576 15.6294 45.0195 15.9627 45.0195 16.3102C45.0195 16.6576 45.1576 16.9909 45.4033 17.2366C45.649 17.4823 45.9822 17.6203 46.3297 17.6203Z" fill="#14263B"/>
<path d="M29.6441 17.6203H37.9865C38.334 17.6203 38.6672 17.4823 38.9129 17.2366C39.1586 16.9909 39.2967 16.6576 39.2967 16.3102C39.2967 15.9627 39.1586 15.6294 38.9129 15.3837C38.6672 15.138 38.334 15 37.9865 15H29.6441C29.2967 15 28.9634 15.138 28.7177 15.3837C28.472 15.6294 28.334 15.9627 28.334 16.3102C28.334 16.6576 28.472 16.9909 28.7177 17.2366C28.9634 17.4823 29.2967 17.6203 29.6441 17.6203Z" fill="#14263B"/>
<path d="M84.1889 15H79.6969C79.3494 15 79.0162 15.138 78.7705 15.3837C78.5248 15.6294 78.3867 15.9627 78.3867 16.3102C78.3867 16.6576 78.5248 16.9909 78.7705 17.2366C79.0162 17.4823 79.3494 17.6203 79.6969 17.6203H82.8787V20.8021C82.8787 21.1496 83.0167 21.4829 83.2624 21.7286C83.5081 21.9743 83.8414 22.1123 84.1889 22.1123C84.5363 22.1123 84.8696 21.9743 85.1153 21.7286C85.361 21.4829 85.499 21.1496 85.499 20.8021V16.3102C85.499 15.9627 85.361 15.6294 85.1153 15.3837C84.8696 15.138 84.5363 15 84.1889 15Z" fill="#14263B"/>
<path d="M84.1891 44.519C83.8416 44.519 83.5083 44.6571 83.2626 44.9028C83.0169 45.1485 82.8789 45.4817 82.8789 45.8292V54.1708C82.8789 54.5183 83.0169 54.8515 83.2626 55.0972C83.5083 55.3429 83.8416 55.481 84.1891 55.481C84.5365 55.481 84.8698 55.3429 85.1155 55.0972C85.3612 54.8515 85.4992 54.5183 85.4992 54.1708V45.8292C85.4992 45.4817 85.3612 45.1485 85.1155 44.9028C84.8698 44.6571 84.5365 44.519 84.1891 44.519Z" fill="#14263B"/>
<path d="M84.1891 27.8342C83.8416 27.8342 83.5083 27.9723 83.2626 28.218C83.0169 28.4637 82.8789 28.7969 82.8789 29.1444V37.486C82.8789 37.8335 83.0169 38.1667 83.2626 38.4124C83.5083 38.6581 83.8416 38.7962 84.1891 38.7962C84.5365 38.7962 84.8698 38.6581 85.1155 38.4124C85.3612 38.1667 85.4992 37.8335 85.4992 37.486V29.1444C85.4992 28.7969 85.3612 28.4637 85.1155 28.218C84.8698 27.9723 84.5365 27.8342 84.1891 27.8342Z" fill="#14263B"/>
<path d="M84.1891 61.203C83.8416 61.203 83.5083 61.341 83.2626 61.5867C83.0169 61.8324 82.8789 62.1657 82.8789 62.5132V70.8548C82.8789 71.2022 83.0169 71.5355 83.2626 71.7812C83.5083 72.0269 83.8416 72.1649 84.1891 72.1649C84.5365 72.1649 84.8698 72.0269 85.1155 71.7812C85.3612 71.5355 85.4992 71.2022 85.4992 70.8548V62.5132C85.4992 62.1657 85.3612 61.8324 85.1155 61.5867C84.8698 61.341 84.5365 61.203 84.1891 61.203Z" fill="#14263B"/>
<path d="M76.0179 24.0214H69.2986C68.9511 24.0214 68.6179 24.1594 68.3722 24.4051C68.1265 24.6508 67.9885 24.984 67.9885 25.3315C67.9885 25.679 68.1265 26.0122 68.3722 26.2579C68.6179 26.5036 68.9511 26.6417 69.2986 26.6417H72.8548L55.3742 44.1207V40.5668C55.3742 40.2193 55.2362 39.8861 54.9905 39.6404C54.7448 39.3947 54.4115 39.2567 54.0641 39.2567C53.7166 39.2567 53.3833 39.3947 53.1376 39.6404C52.8919 39.8861 52.7539 40.2193 52.7539 40.5668V47.2853C52.7538 47.4574 52.7876 47.6278 52.8534 47.7868C52.9192 47.9458 53.0157 48.0903 53.1374 48.212C53.2591 48.3336 53.4036 48.4301 53.5626 48.496C53.7216 48.5618 53.892 48.5956 54.0641 48.5955H60.7833C61.1308 48.5955 61.464 48.4574 61.7097 48.2117C61.9554 47.966 62.0935 47.6328 62.0935 47.2853C62.0935 46.9378 61.9554 46.6046 61.7097 46.3589C61.464 46.1132 61.1308 45.9752 60.7833 45.9752H57.2272L74.7077 28.4924V32.0485C74.7077 32.396 74.8457 32.7292 75.0914 32.975C75.3371 33.2207 75.6704 33.3587 76.0179 33.3587C76.3653 33.3587 76.6986 33.2207 76.9443 32.975C77.19 32.7292 77.328 32.396 77.328 32.0485V25.3293C77.3274 24.9822 77.1891 24.6495 76.9435 24.4043C76.6979 24.1591 76.365 24.0214 76.0179 24.0214Z" fill="#9ACD33"/>
</svg>
